<svg width="470" height="109" viewBox="0 0 470 109" fill="none" xmlns="http://www.w3.org/2000/svg">
<path fill-rule="evenodd" clip-rule="evenodd" d="M14.2792 73.8C14.2792 73.6 14.1792 73.4 14.1792 73.2V25.4C14.1792 24.8 14.4792 24.2 15.0792 24C28.7792 16.1 42.5792 8.2 56.2792 0.199999C56.9792 -0.200001 57.8792 1.66893e-06 58.3792 0.800002C58.4792 1.1 58.4792 1.3 58.4792 1.6H58.5792V19C58.5792 19 58.5792 19 58.6792 19L86.4792 35H86.5792C86.5792 35.1 95.7792 40.5 95.7792 40.5L99.7792 42.7C100.179 43 100.679 43.5 100.679 44.1V91.9C100.679 92.8 99.9792 93.5 99.0792 93.5C98.1792 93.5 98.3792 93.5 98.1792 93.2L83.6792 84.8L58.6792 99.2H58.5792L56.6792 100.5L43.2792 108.1H43.1792H43.0792C43.0792 108.1 42.9792 108.1 42.7792 108.2H42.6792H42.5792C42.4792 108.2 42.2792 108.2 42.1792 108.1H42.0792L28.5792 100.3L0.779159 84.2C0.0791591 83.8 -0.220839 82.8 0.179161 82.1C0.279161 81.8 0.579159 81.6 0.779159 81.5L14.5792 73.6L14.2792 73.8ZM31.7792 65.6L18.3792 73.3L42.4792 87.2L67.4792 72.7C68.0792 72.4 68.6792 72.3 69.0792 72.7L82.1792 80.2V53.9L57.1792 39.5C56.7792 39.2 56.2792 38.7 56.2792 38.1V21.4L32.5792 35.1V64.1C32.5792 64.7 32.2792 65.2 31.6792 65.5L31.7792 65.6Z" fill="#E30613"/>
<path fill-rule="evenodd" clip-rule="evenodd" d="M440.479 36.1H460.579C461.179 36.2 461.779 36 462.079 35.6C462.179 35.6 468.179 28.3 468.779 27.7C470.679 25.2 468.679 21.8 465.979 21.8H400.779C398.079 21.8 395.879 25.3 397.979 27.7C398.579 28.4 404.479 35.6 404.479 35.6C404.779 36 405.379 36.2 405.979 36.2H426.079C426.079 36.1 426.079 77.4 426.079 77.4C426.079 78.6 427.079 79.6 428.179 79.6H438.479C439.679 79.6 440.579 78.6 440.579 77.4V36.1H440.479Z" fill="white"/>
<path fill-rule="evenodd" clip-rule="evenodd" d="M331.279 22.3C331.579 21.9 332.179 21.6 332.879 21.6H377.379C377.979 21.6 378.679 22 379.179 22.6L385.479 30.2C385.879 30.8 386.179 31.1 386.179 32.5C386.179 33.9 384.579 36.1 382.579 36.1H334.679C329.879 36.1 329.879 43.4 334.679 43.4H374.579C375.279 43.4 375.879 43.6 376.479 44.2L387.779 56.5C389.079 57.8 389.879 59.7 389.879 61.6C389.879 63.5 389.279 65.3 387.779 66.7L376.279 78.9C375.879 79.3 375.279 79.6 374.779 79.6H330.279C329.379 79.6 328.779 79.2 328.379 78.6L322.079 71.1C321.679 70.5 321.379 69.7 321.379 68.8C321.379 66.8 322.879 65.2 324.979 65.2H372.779C377.679 65.2 377.679 57.9 372.779 57.9H332.879C332.179 57.9 331.579 57.6 331.079 57.1L319.579 44.8C318.379 43.5 317.679 41.7 317.679 39.7C317.679 37.7 318.379 35.9 319.779 34.6L331.279 22.4V22.3Z" fill="white"/>
<path fill-rule="evenodd" clip-rule="evenodd" d="M302.479 36.2L290.579 23.8C289.379 22.4 287.479 21.6 285.379 21.6C271.979 21.6 264.779 21.6 248.579 21.6C232.379 21.6 247.579 21.6 247.179 21.7C245.679 22 244.379 22.7 243.379 23.8C240.379 26.9 231.479 36.2 231.479 36.2C231.079 36.6 230.779 37.2 230.779 37.7V77.2C230.779 78.4 231.779 79.4 233.179 79.4H243.179C244.379 79.4 245.379 78.4 245.379 77.2V65.6C260.879 65.6 273.179 65.6 288.879 65.6V77.2C288.879 78.4 289.779 79.3 290.979 79.3H301.079C302.279 79.3 303.279 78.3 303.279 77.2V37.7C303.279 37.1 302.979 36.5 302.579 36.1L302.479 36.2ZM288.879 51.3C273.279 51.3 260.879 51.3 245.379 51.3V42.8C245.679 39 248.679 36 252.479 36C263.179 36 270.779 36 281.479 36C292.179 36 288.479 39 288.779 42.7V51.2L288.879 51.3Z" fill="white"/>
<path fill-rule="evenodd" clip-rule="evenodd" d="M173.179 53.6C165.779 43.7 160.079 33.3 152.379 23.6C151.179 22.4 149.379 21.7 147.479 21.7C145.579 21.7 143.579 22.6 142.279 23.9L130.479 36.3C130.079 36.7 129.779 37.3 129.779 37.8V77.3C129.779 78.5 130.779 79.5 131.879 79.5H142.179C143.179 79.5 144.279 78.5 144.279 77.3V48.5C144.279 46.3 146.479 44.5 148.279 44.5C150.079 44.5 150.779 45.2 151.579 46.3L167.379 69.6C168.979 71.8 171.079 72.8 173.379 72.7C175.479 72.7 177.879 71.8 179.379 69.6L195.179 46.3C195.879 45.2 196.679 44.5 198.479 44.5C200.279 44.5 202.479 46.3 202.479 48.5V77.3C202.479 78.5 203.379 79.5 204.679 79.5H214.679C215.979 79.5 216.879 78.5 216.879 77.3V37.8C216.879 37.2 216.579 36.6 216.279 36.3L204.379 23.9C203.079 22.5 201.079 21.7 198.979 21.7C196.879 21.7 195.579 22.4 194.079 23.6C186.479 33.3 180.979 43.7 173.379 53.6H173.179Z" fill="white"/>
</svg>
