<svg width="910" height="150" viewBox="0 0 910 150" fill="none" xmlns="http://www.w3.org/2000/svg">
<g clip-path="url(#clip0_285_62)">
<path d="M564.067 0.00195312C562.823 0.00195312 561.708 0.769751 561.264 1.93198L545.334 43.6587L538.2 69.1717C538.079 69.6037 537.686 69.9025 537.237 69.9025H535.386C534.943 69.9025 534.552 69.6098 534.427 69.1839L527.051 44.0318L508.436 1.79218C507.957 0.704148 506.88 0.00195312 505.691 0.00195312H461.607C460.869 0.00195312 460.385 0.774107 460.707 1.43823L513.26 109.83C513.518 110.362 513.261 111.002 512.696 111.174C510.501 111.839 508.2 112.101 505.906 111.942H479.35C478.176 111.942 477.111 112.627 476.622 113.694L460.659 148.586C460.356 149.248 460.84 150.002 461.568 150.002H493.717C526.429 150.002 543.468 143.161 555.906 116.669L608.617 1.41787C608.92 0.755561 608.436 0.00195312 607.707 0.00195312H564.067Z" fill="#181818"></path>
<path d="M316.628 150.002C315.523 150.002 314.628 149.107 314.628 148.002V2.00195C314.628 0.897382 315.523 0.00195312 316.628 0.00195312H390.499C440.25 0.00195312 471.344 27.4895 471.344 74.6288C471.344 121.768 440.001 150.002 390.499 150.002H316.628ZM357.668 37.3154C357.115 37.3154 356.668 37.7631 356.668 38.3154V110.942C356.668 111.495 357.115 111.942 357.668 111.942H390.499C417.115 111.942 426.568 108.833 426.568 74.6288C426.568 40.4248 417.115 37.3154 390.499 37.3154H357.668Z" fill="#181818"></path>
<path d="M148.776 150.002C147.672 150.002 146.776 149.107 146.776 148.002V2.00195C146.776 0.897382 147.672 0.00195312 148.776 0.00195312H222.647C272.398 0.00195312 303.493 27.4895 303.493 74.6288C303.493 121.768 272.149 150.002 222.647 150.002H148.776ZM189.816 37.3154C189.264 37.3154 188.816 37.7631 188.816 38.3154V110.942C188.816 111.495 189.264 111.942 189.816 111.942H222.647C249.264 111.942 258.717 108.833 258.717 74.6288C258.717 40.4248 249.264 37.3154 222.647 37.3154H189.816Z" fill="#181818"></path>
<path d="M130.625 37.3154C131.73 37.3154 132.625 36.42 132.625 35.3154V2.00195C132.625 0.897382 131.73 0.00195312 130.625 0.00195312H26.7624C25.184 0.00195312 23.7533 0.930095 23.1098 2.37135L0.681787 52.6102C-0.234457 54.6626 -0.708008 56.885 -0.708008 59.1326V148.002C-0.708008 149.107 0.187423 150.002 1.29199 150.002H130.625C131.73 150.002 132.625 149.107 132.625 148.002V113.942C132.625 112.838 131.73 111.942 130.625 111.942H42.4562C41.9039 111.942 41.4562 111.495 41.4562 110.942V94.2855C41.4562 93.7333 41.9039 93.2855 42.4562 93.2855H127.267C128.372 93.2855 129.267 92.3901 129.267 91.2855V57.9721C129.267 56.8675 128.372 55.9721 127.267 55.9721H42.4562C41.9039 55.9721 41.4562 55.5244 41.4562 54.9721V38.3154C41.4562 37.7631 41.9039 37.3154 42.4562 37.3154H130.625Z" fill="#181818"></path>
<path fill-rule="evenodd" clip-rule="evenodd" d="M908.143 -0.0004342C908.439 -0.00786722 908.732 0.0612157 908.993 0.199761C909.255 0.338312 909.477 0.542301 909.638 0.791558C909.799 1.04095 909.895 1.32779 909.914 1.62457C909.934 1.92143 909.878 2.21907 909.751 2.48785L845.166 146.89C844.768 147.837 844.094 148.641 843.233 149.196C842.372 149.751 841.363 150.031 840.341 150H564.928C564.615 150.02 564.302 149.954 564.024 149.809C563.745 149.665 563.51 149.446 563.345 149.178C563.18 148.91 563.091 148.602 563.086 148.287C563.082 147.971 563.162 147.661 563.32 147.388L627.286 4.22906C627.891 2.96377 628.839 1.89507 630.021 1.14703C631.202 0.399027 632.57 0.00130843 633.967 -0.0004342H908.143ZM649.32 54.4996C643.633 54.4996 638.826 56.4881 634.9 60.4644C631.024 64.4407 629.086 69.2729 629.086 74.9605C629.086 78.7352 629.967 82.1828 631.729 85.3033C633.49 88.4238 635.931 90.8908 639.052 92.7027C642.172 94.4642 645.596 95.3453 649.32 95.3453C653.699 95.3451 657.575 94.1371 660.947 91.7212V93.231C660.947 96.1502 659.965 98.466 658.002 100.177C656.09 101.939 653.674 102.82 650.755 102.82C648.591 102.82 646.602 102.316 644.79 101.309C642.978 100.353 641.77 99.0192 641.166 97.3082H630.219C631.125 101.939 633.415 105.588 637.089 108.255C640.814 110.923 645.444 112.257 650.981 112.257C655.259 112.257 658.959 111.426 662.079 109.765C665.2 108.104 667.591 105.714 669.252 102.593C670.963 99.5232 671.819 95.8737 671.82 91.646V55.6324H664.647L662.91 59.7095C659.136 56.2367 654.605 54.4997 649.32 54.4996ZM822.562 54.4996C817.478 54.4996 813.124 56.1103 809.5 59.3316L807.612 55.6324H800.289V111.125H811.313V94.2125C814.635 96.4772 818.384 97.6099 822.562 97.6099C828.652 97.6098 833.736 95.5715 837.813 91.4947C841.89 87.3674 843.928 82.208 843.928 76.0171C843.928 69.8263 841.889 64.6917 837.813 60.6148C833.786 56.538 828.702 54.4996 822.562 54.4996ZM727.116 54.4996C720.775 54.4996 715.515 56.538 711.337 60.6148C707.159 64.6918 705.07 69.8261 705.07 76.0171C705.071 80.0436 706.002 83.7177 707.864 87.0396C709.777 90.311 712.419 92.8785 715.791 94.7408C719.163 96.603 722.939 97.5347 727.116 97.5347C733.358 97.5346 738.568 95.4964 742.745 91.4195C746.973 87.2922 749.087 82.1576 749.087 76.0171C749.087 69.8263 746.998 64.6917 742.82 60.6148C738.643 56.538 733.408 54.4996 727.116 54.4996ZM754.242 55.6324V79.188C754.242 84.6743 755.979 89.1038 759.452 92.4761C762.976 95.8482 767.606 97.5347 773.344 97.5347C779.132 97.5346 783.763 95.874 787.236 92.5523C790.759 89.18 792.521 84.7246 792.521 79.188V55.6324H781.498V77.9048C781.498 80.8238 780.768 83.114 779.309 84.775C777.9 86.3855 775.911 87.1909 773.344 87.191C770.827 87.191 768.839 86.3854 767.379 84.775C765.97 83.114 765.266 80.8238 765.266 77.9048V55.6324H754.242ZM700.955 55.4058C695.872 55.4058 691.945 57.1428 689.177 60.6158L687.214 55.6324H680.117V96.4019H691.141V75.1871C691.141 71.8651 691.795 69.4739 693.104 68.0142C694.463 66.5548 696.702 65.8248 699.822 65.8248H704.579V55.4058H700.955ZM727.041 64.8433C730.262 64.8434 732.88 65.9004 734.893 68.0142C736.906 70.0778 737.913 72.7456 737.913 76.0171C737.913 79.2886 736.906 81.9814 734.893 84.0953C732.88 86.1589 730.287 87.1909 727.116 87.191C725.506 87.191 724.021 86.9143 722.662 86.3609C721.354 85.8073 720.221 85.0514 719.265 84.0953C718.309 83.1391 717.553 81.9565 716.999 80.5474C716.496 79.1382 716.244 77.6277 716.244 76.0171C716.244 72.7455 717.251 70.0779 719.265 68.0142C721.278 65.9003 723.87 64.8433 727.041 64.8433ZM821.655 64.8433C823.769 64.8434 825.658 65.3216 827.319 66.2779C829.029 67.2341 830.363 68.5679 831.32 70.2789C832.276 71.9901 832.754 73.9033 832.754 76.0171C832.754 79.2383 831.697 81.9062 829.583 84.0201C827.469 86.134 824.801 87.1909 821.58 87.191C818.409 87.191 815.766 86.1339 813.653 84.0201C811.589 81.9062 810.557 79.2383 810.557 76.0171C810.557 73.9032 811.01 71.9902 811.916 70.2789C812.873 68.5676 814.207 67.2342 815.918 66.2779C817.629 65.3217 819.542 64.8434 821.655 64.8433ZM650.604 64.4654C653.674 64.4655 656.166 65.4727 658.078 67.4859C660.041 69.4488 661.023 71.9408 661.023 74.9605C661.022 78.0304 660.041 80.5723 658.078 82.5855C656.115 84.5484 653.623 85.5297 650.604 85.5298C647.584 85.5298 645.092 84.5483 643.129 82.5855C641.217 80.5723 640.26 78.0305 640.26 74.9605C640.26 71.9407 641.242 69.4488 643.204 67.4859C645.167 65.4726 647.634 64.4654 650.604 64.4654Z" fill="#181818"></path>
</g>
<defs>
<clipPath id="clip0_285_62">
<rect width="910" height="150" fill="#181818"></rect>
</clipPath>
</defs>
</svg>